# xmcd
#
# Track frame offsets: 
#        150
#        21381
#        39329
#        57193
#        88811
#        103797
#        131194
#        145747
#
# Disc length: 2123 seconds
#
# Revision: 0
# Processed by: cddbd v1.5.2PL0 Copyright (c) Steve Scherf et al.
# Submitted via: ExactAudioCopy v1.1
#
DISCID=6e084908
DTITLE=Pastor T.L. Barrett - Do Not Pass Me By
DYEAR=1976
DGENRE=Gospel
TTITLE0=Do Not Pass Me By
TTITLE1=After The Rain
TTITLE2=These Are The Words
TTITLE3=Father Stretch My Hands
TTITLE4=So Many Years
TTITLE5=You May Not Heed Him(Until Tomorrow)
TTITLE6=Oh What A Day
TTITLE7=I Want To Be In Love With You
EXTD=
EXTT0=
EXTT1=
EXTT2=
EXTT3=
EXTT4=
EXTT5=
EXTT6=
EXTT7=
PLAYORDER=
